<mxfile host="app.diagrams.net" modified="2024-01-25T14:09:58.042Z" agent="Mozilla/5.0 (Windows NT 10.0; Win64; x64) AppleWebKit/537.36 (KHTML, like Gecko) Chrome/121.0.0.0 Safari/537.36" version="21.1.4" etag="M9KzEnCg8xe4xhx8FCHk" type="github">
  <diagram name="Page-1" id="L4UqZUZsXSYlf-t8mANe">
    <mxGraphModel>
      <root>
        <mxCell id="0" />
        <mxCell id="1" parent="0" />
      </root>
    </mxGraphModel>
  </diagram>
</mxfile>
